<mxfile host="app.diagrams.net" modified="2024-02-14T14:50:45.673Z" agent="Mozilla/5.0 (Macintosh; Intel Mac OS X 10_15_7) AppleWebKit/537.36 (KHTML, like Gecko) Chrome/121.0.0.0 Safari/537.36" etag="PnM7bcFa_Ev8U5k5R3x5" version="23.1.4" type="github">
  <diagram name="Page-1" id="_ToASv90ehKwSt9BAycF">
    <mxGraphModel dx="1434" dy="763" grid="1" gridSize="10" guides="1" tooltips="1" connect="1" arrows="1" fold="1" page="1" pageScale="1" pageWidth="827" pageHeight="1169" math="0" shadow="0">
      <root>
        <mxCell id="0" />
        <mxCell id="1" parent="0" />
        <mxCell id="9sXK3nZFc6DsjOhw4tz2-1" value="Profil&lt;br&gt;&lt;br&gt;&lt;div style=&quot;text-align: justify;&quot;&gt;&lt;span style=&quot;background-color: initial;&quot;&gt;email&lt;/span&gt;&lt;/div&gt;&lt;div style=&quot;text-align: justify;&quot;&gt;&lt;br&gt;&lt;/div&gt;&lt;div style=&quot;text-align: justify;&quot;&gt;&lt;span style=&quot;background-color: initial;&quot;&gt;mdp&lt;/span&gt;&lt;/div&gt;&lt;div style=&quot;text-align: justify;&quot;&gt;&lt;br&gt;&lt;/div&gt;&lt;div style=&quot;text-align: justify;&quot;&gt;&lt;span style=&quot;background-color: initial;&quot;&gt;profil_id&lt;/span&gt;&lt;/div&gt;" style="whiteSpace=wrap;html=1;aspect=fixed;fillColor=#ffe6cc;strokeColor=#d79b00;" vertex="1" parent="1">
          <mxGeometry x="354" y="130" width="120" height="120" as="geometry" />
        </mxCell>
        <mxCell id="9sXK3nZFc6DsjOhw4tz2-2" value="Rôle&lt;br&gt;&lt;div style=&quot;text-align: justify;&quot;&gt;&lt;br&gt;&lt;/div&gt;&lt;div style=&quot;text-align: justify;&quot;&gt;nom&lt;/div&gt;&lt;div style=&quot;text-align: justify;&quot;&gt;code&lt;/div&gt;" style="whiteSpace=wrap;html=1;aspect=fixed;fillColor=#dae8fc;strokeColor=#6c8ebf;" vertex="1" parent="1">
          <mxGeometry x="650" y="170" width="120" height="120" as="geometry" />
        </mxCell>
        <mxCell id="9sXK3nZFc6DsjOhw4tz2-3" value="droits&lt;br&gt;&lt;div style=&quot;text-align: justify;&quot;&gt;&lt;br&gt;&lt;/div&gt;&lt;div style=&quot;text-align: justify;&quot;&gt;nom&lt;/div&gt;&lt;div style=&quot;text-align: justify;&quot;&gt;code&lt;/div&gt;" style="whiteSpace=wrap;html=1;aspect=fixed;fillColor=#d5e8d4;strokeColor=#82b366;" vertex="1" parent="1">
          <mxGeometry x="620" y="462" width="120" height="120" as="geometry" />
        </mxCell>
        <mxCell id="9sXK3nZFc6DsjOhw4tz2-5" value="Commande&lt;br&gt;&lt;br&gt;&lt;div style=&quot;text-align: justify;&quot;&gt;date&lt;/div&gt;&lt;div style=&quot;text-align: justify;&quot;&gt;&lt;br&gt;&lt;/div&gt;&lt;div style=&quot;text-align: justify;&quot;&gt;code&lt;/div&gt;&lt;div style=&quot;text-align: justify;&quot;&gt;&lt;br&gt;&lt;/div&gt;&lt;div style=&quot;text-align: justify;&quot;&gt;heure&lt;/div&gt;&lt;div style=&quot;text-align: justify;&quot;&gt;&lt;br&gt;&lt;/div&gt;&lt;div style=&quot;text-align: justify;&quot;&gt;statut&lt;/div&gt;&lt;div style=&quot;text-align: justify;&quot;&gt;&lt;br&gt;&lt;/div&gt;&lt;div style=&quot;text-align: justify;&quot;&gt;user_id&lt;/div&gt;" style="whiteSpace=wrap;html=1;aspect=fixed;fillColor=#dae8fc;strokeColor=#6c8ebf;" vertex="1" parent="1">
          <mxGeometry x="334" y="560" width="160" height="160" as="geometry" />
        </mxCell>
        <mxCell id="9sXK3nZFc6DsjOhw4tz2-7" value="Produit&lt;br&gt;&lt;div style=&quot;text-align: justify;&quot;&gt;&lt;br&gt;&lt;/div&gt;&lt;div style=&quot;text-align: justify;&quot;&gt;nom&lt;/div&gt;&lt;div style=&quot;text-align: justify;&quot;&gt;&lt;br&gt;&lt;/div&gt;&lt;div style=&quot;text-align: justify;&quot;&gt;prix&lt;/div&gt;&lt;div style=&quot;text-align: justify;&quot;&gt;&lt;br&gt;&lt;/div&gt;&lt;div style=&quot;text-align: justify;&quot;&gt;quantity&lt;/div&gt;&lt;div style=&quot;text-align: justify;&quot;&gt;&lt;br&gt;&lt;/div&gt;&lt;div style=&quot;text-align: justify;&quot;&gt;code&lt;/div&gt;" style="whiteSpace=wrap;html=1;aspect=fixed;fillColor=#dae8fc;strokeColor=#6c8ebf;" vertex="1" parent="1">
          <mxGeometry x="50" y="290" width="150" height="150" as="geometry" />
        </mxCell>
        <mxCell id="9sXK3nZFc6DsjOhw4tz2-8" value="Ingrédient&lt;br&gt;&lt;div style=&quot;text-align: justify;&quot;&gt;&lt;br&gt;&lt;/div&gt;&lt;div style=&quot;text-align: justify;&quot;&gt;nom&lt;/div&gt;&lt;div style=&quot;text-align: justify;&quot;&gt;&lt;br&gt;&lt;/div&gt;&lt;div style=&quot;text-align: justify;&quot;&gt;code&lt;/div&gt;" style="whiteSpace=wrap;html=1;aspect=fixed;fillColor=#f8cecc;strokeColor=#b85450;" vertex="1" parent="1">
          <mxGeometry x="45" y="670" width="150" height="150" as="geometry" />
        </mxCell>
        <mxCell id="9sXK3nZFc6DsjOhw4tz2-10" value="Catégorie&lt;br&gt;&lt;div style=&quot;text-align: justify;&quot;&gt;&lt;br&gt;&lt;/div&gt;&lt;div style=&quot;text-align: justify;&quot;&gt;nom&lt;/div&gt;&lt;div style=&quot;text-align: justify;&quot;&gt;&lt;br&gt;&lt;/div&gt;&lt;div style=&quot;text-align: justify;&quot;&gt;code&lt;/div&gt;" style="whiteSpace=wrap;html=1;aspect=fixed;fillColor=#fff2cc;strokeColor=#d6b656;" vertex="1" parent="1">
          <mxGeometry x="60" y="10" width="150" height="150" as="geometry" />
        </mxCell>
        <mxCell id="9sXK3nZFc6DsjOhw4tz2-12" value="Crée" style="ellipse;whiteSpace=wrap;html=1;fillColor=#f5f5f5;fontColor=#333333;strokeColor=#666666;" vertex="1" parent="1">
          <mxGeometry x="360" y="350" width="120" height="80" as="geometry" />
        </mxCell>
        <mxCell id="9sXK3nZFc6DsjOhw4tz2-13" value="Appartient" style="ellipse;whiteSpace=wrap;html=1;fillColor=#d5e8d4;strokeColor=#82b366;" vertex="1" parent="1">
          <mxGeometry x="60" y="505" width="120" height="80" as="geometry" />
        </mxCell>
        <mxCell id="9sXK3nZFc6DsjOhw4tz2-14" value="Contient" style="ellipse;whiteSpace=wrap;html=1;fillColor=#f5f5f5;fontColor=#333333;strokeColor=#666666;" vertex="1" parent="1">
          <mxGeometry x="65" y="190" width="120" height="80" as="geometry" />
        </mxCell>
        <mxCell id="9sXK3nZFc6DsjOhw4tz2-16" value="Possède" style="ellipse;whiteSpace=wrap;html=1;fillColor=#e1d5e7;strokeColor=#9673a6;" vertex="1" parent="1">
          <mxGeometry x="500" y="170" width="120" height="80" as="geometry" />
        </mxCell>
        <mxCell id="9sXK3nZFc6DsjOhw4tz2-17" value="Possède" style="ellipse;whiteSpace=wrap;html=1;fillColor=#fff2cc;strokeColor=#d6b656;" vertex="1" parent="1">
          <mxGeometry x="630" y="320" width="120" height="80" as="geometry" />
        </mxCell>
        <mxCell id="9sXK3nZFc6DsjOhw4tz2-19" value="" style="endArrow=classic;startArrow=classic;html=1;rounded=0;" edge="1" parent="1" target="9sXK3nZFc6DsjOhw4tz2-5">
          <mxGeometry width="50" height="50" relative="1" as="geometry">
            <mxPoint x="205" y="440" as="sourcePoint" />
            <mxPoint x="255" y="390" as="targetPoint" />
          </mxGeometry>
        </mxCell>
        <mxCell id="9sXK3nZFc6DsjOhw4tz2-20" value="Contient" style="ellipse;whiteSpace=wrap;html=1;fillColor=#f8cecc;strokeColor=#b85450;" vertex="1" parent="1">
          <mxGeometry x="210" y="470" width="120" height="80" as="geometry" />
        </mxCell>
        <mxCell id="9sXK3nZFc6DsjOhw4tz2-22" value="" style="endArrow=classic;startArrow=classic;html=1;rounded=0;exitX=1.042;exitY=0.583;exitDx=0;exitDy=0;exitPerimeter=0;" edge="1" parent="1" source="9sXK3nZFc6DsjOhw4tz2-1">
          <mxGeometry width="50" height="50" relative="1" as="geometry">
            <mxPoint x="610" y="240" as="sourcePoint" />
            <mxPoint x="650" y="190" as="targetPoint" />
          </mxGeometry>
        </mxCell>
        <mxCell id="9sXK3nZFc6DsjOhw4tz2-23" value="" style="endArrow=classic;startArrow=classic;html=1;rounded=0;entryX=0.417;entryY=1.025;entryDx=0;entryDy=0;entryPerimeter=0;exitX=0.438;exitY=-0.012;exitDx=0;exitDy=0;exitPerimeter=0;" edge="1" parent="1" source="9sXK3nZFc6DsjOhw4tz2-5" target="9sXK3nZFc6DsjOhw4tz2-1">
          <mxGeometry width="50" height="50" relative="1" as="geometry">
            <mxPoint x="390" y="370" as="sourcePoint" />
            <mxPoint x="440" y="320" as="targetPoint" />
          </mxGeometry>
        </mxCell>
        <mxCell id="9sXK3nZFc6DsjOhw4tz2-24" value="" style="endArrow=classic;startArrow=classic;html=1;rounded=0;" edge="1" parent="1" source="9sXK3nZFc6DsjOhw4tz2-3">
          <mxGeometry width="50" height="50" relative="1" as="geometry">
            <mxPoint x="655" y="340" as="sourcePoint" />
            <mxPoint x="690" y="293" as="targetPoint" />
          </mxGeometry>
        </mxCell>
        <mxCell id="9sXK3nZFc6DsjOhw4tz2-26" value="" style="endArrow=classic;startArrow=classic;html=1;rounded=0;exitX=0.5;exitY=0;exitDx=0;exitDy=0;" edge="1" parent="1" source="9sXK3nZFc6DsjOhw4tz2-8">
          <mxGeometry width="50" height="50" relative="1" as="geometry">
            <mxPoint x="125" y="660" as="sourcePoint" />
            <mxPoint x="115" y="440" as="targetPoint" />
          </mxGeometry>
        </mxCell>
        <mxCell id="9sXK3nZFc6DsjOhw4tz2-27" value="" style="endArrow=classic;startArrow=classic;html=1;rounded=0;entryX=0.25;entryY=1;entryDx=0;entryDy=0;" edge="1" parent="1">
          <mxGeometry width="50" height="50" relative="1" as="geometry">
            <mxPoint x="126.25" y="290" as="sourcePoint" />
            <mxPoint x="123.75" y="160" as="targetPoint" />
          </mxGeometry>
        </mxCell>
        <mxCell id="9sXK3nZFc6DsjOhw4tz2-29" value="0/N" style="rounded=1;whiteSpace=wrap;html=1;" vertex="1" parent="1">
          <mxGeometry x="170" y="160" width="40" height="20" as="geometry" />
        </mxCell>
        <mxCell id="9sXK3nZFc6DsjOhw4tz2-30" value="1/N" style="rounded=1;whiteSpace=wrap;html=1;" vertex="1" parent="1">
          <mxGeometry x="170" y="270" width="40" height="20" as="geometry" />
        </mxCell>
        <mxCell id="9sXK3nZFc6DsjOhw4tz2-31" value="1/N" style="rounded=1;whiteSpace=wrap;html=1;" vertex="1" parent="1">
          <mxGeometry x="140" y="440" width="40" height="20" as="geometry" />
        </mxCell>
        <mxCell id="9sXK3nZFc6DsjOhw4tz2-32" value="0/N" style="rounded=1;whiteSpace=wrap;html=1;" vertex="1" parent="1">
          <mxGeometry x="150" y="650" width="40" height="20" as="geometry" />
        </mxCell>
        <mxCell id="9sXK3nZFc6DsjOhw4tz2-33" value="0/N" style="rounded=1;whiteSpace=wrap;html=1;" vertex="1" parent="1">
          <mxGeometry x="434" y="250" width="40" height="20" as="geometry" />
        </mxCell>
        <mxCell id="9sXK3nZFc6DsjOhw4tz2-34" value="1/1" style="rounded=1;whiteSpace=wrap;html=1;" vertex="1" parent="1">
          <mxGeometry x="454" y="540" width="40" height="20" as="geometry" />
        </mxCell>
        <mxCell id="9sXK3nZFc6DsjOhw4tz2-35" value="0/N" style="rounded=1;whiteSpace=wrap;html=1;" vertex="1" parent="1">
          <mxGeometry x="200" y="420" width="40" height="20" as="geometry" />
        </mxCell>
        <mxCell id="9sXK3nZFc6DsjOhw4tz2-36" value="1/N" style="rounded=1;whiteSpace=wrap;html=1;" vertex="1" parent="1">
          <mxGeometry x="334" y="535" width="40" height="20" as="geometry" />
        </mxCell>
        <mxCell id="9sXK3nZFc6DsjOhw4tz2-37" value="1/1" style="rounded=1;whiteSpace=wrap;html=1;" vertex="1" parent="1">
          <mxGeometry x="474" y="170" width="40" height="20" as="geometry" />
        </mxCell>
        <mxCell id="9sXK3nZFc6DsjOhw4tz2-38" value="0/N" style="rounded=1;whiteSpace=wrap;html=1;" vertex="1" parent="1">
          <mxGeometry x="610" y="150" width="40" height="20" as="geometry" />
        </mxCell>
        <mxCell id="9sXK3nZFc6DsjOhw4tz2-39" value="1/N" style="rounded=1;whiteSpace=wrap;html=1;" vertex="1" parent="1">
          <mxGeometry x="700" y="290" width="40" height="20" as="geometry" />
        </mxCell>
        <mxCell id="9sXK3nZFc6DsjOhw4tz2-40" value="0/N" style="rounded=1;whiteSpace=wrap;html=1;" vertex="1" parent="1">
          <mxGeometry x="690" y="440" width="40" height="20" as="geometry" />
        </mxCell>
      </root>
    </mxGraphModel>
  </diagram>
</mxfile>
